<svg width="16" height="16" viewBox="0 0 16 16" fill="none" xmlns="http://www.w3.org/2000/svg">
<path fill-rule="evenodd" clip-rule="evenodd" d="M2.81488 2.81389C4.14123 1.48756 5.97548 0.666016 8.00033 0.666016C10.0252 0.666016 11.8594 1.48756 13.1858 2.8139C14.5121 4.14025 15.3337 5.9745 15.3337 7.99935C15.3337 10.0242 14.5121 11.8584 13.1858 13.1848C11.8594 14.5111 10.0252 15.3327 8.00033 15.3327C5.97548 15.3327 4.14123 14.5111 2.81488 13.1848C1.48854 11.8584 0.666992 10.0242 0.666992 7.99935C0.666992 5.9745 1.48854 4.14025 2.81488 2.81389ZM5.33366 6.20768C5.33366 4.73493 6.52757 3.54102 8.00033 3.54102C9.47308 3.54102 10.667 4.73493 10.667 6.20768C10.667 7.45024 9.81714 8.49431 8.66699 8.79034V9.54101C8.66699 9.90921 8.36851 10.2077 8.00033 10.2077C7.63214 10.2077 7.33366 9.90921 7.33366 9.54101V8.20768C7.33366 7.83949 7.63214 7.54102 8.00033 7.54102C8.7367 7.54102 9.33366 6.94406 9.33366 6.20768C9.33366 5.47131 8.7367 4.87435 8.00033 4.87435C7.26395 4.87435 6.66699 5.47131 6.66699 6.20768C6.66699 6.57587 6.36851 6.87435 6.00033 6.87435C5.63214 6.87435 5.33366 6.57587 5.33366 6.20768ZM8.00033 12.541C8.46056 12.541 8.83366 12.1679 8.83366 11.7077C8.83366 11.2474 8.46056 10.8743 8.00033 10.8743C7.54009 10.8743 7.16699 11.2474 7.16699 11.7077C7.16699 12.1679 7.54009 12.541 8.00033 12.541Z" fill="#989898"/>
</svg>
