<svg width="16" height="16" viewBox="0 0 16 16" fill="none" xmlns="http://www.w3.org/2000/svg">
<path fill-rule="evenodd" clip-rule="evenodd" d="M0.982376 2.43394C1.08438 2.37057 1.20475 2.33398 1.33366 2.33398H14.667C14.794 2.33398 14.9127 2.3695 15.0137 2.43114C15.0013 2.42361 14.9888 2.4165 14.976 2.40983C15.0546 2.45104 15.124 2.50748 15.1802 2.57523C15.1707 2.56378 15.161 2.55273 15.1509 2.54207C15.2297 2.62523 15.2873 2.7287 15.3151 2.84381C15.3057 2.80476 15.2926 2.76627 15.2759 2.72885C15.313 2.81188 15.3336 2.90388 15.3336 3.00071V3.01049L15.3337 3.00815V13.0007C15.3337 13.3688 15.0352 13.6673 14.667 13.6673H1.33366C0.965469 13.6673 0.666992 13.3688 0.666992 13.0007V3.00065C0.666992 2.76137 0.793049 2.55154 0.982376 2.43394ZM0.982376 2.43394C0.989639 2.42944 0.996975 2.42509 1.00438 2.42089C0.945969 2.45413 0.893069 2.49594 0.847395 2.54461C0.888072 2.50114 0.933549 2.46418 0.982376 2.43394ZM2.00029 3.66738H3.33361L8.00033 7.16742L12.6671 3.66738H14.0003V4.33411L8.40033 8.53408C8.1633 8.71186 7.83737 8.71186 7.60033 8.53408L2.00029 4.33405V3.66738Z" fill="#989898"/>
</svg>
