<svg width="16" height="16" viewBox="0 0 16 16" fill="none" xmlns="http://www.w3.org/2000/svg">
<path d="M7.01314 7.02323C6.95236 6.88108 6.90886 6.75679 6.87902 6.66117L7.53815 5.34287C7.73094 4.95734 7.72104 4.50157 7.51189 4.1248L6.71304 2.68581C6.48274 2.27101 6.0456 2.01367 5.57111 2.01367H3.91472C2.66283 2.01367 1.68805 3.20003 2.11269 4.45854C2.67127 6.11396 3.76458 8.7879 5.49372 10.517C7.22286 12.2462 9.89679 13.3395 11.5522 13.8981C12.8108 14.3228 13.9971 13.3479 13.9971 12.096V10.4394C13.9971 9.96518 13.7401 9.52827 13.3256 9.29784L11.8826 8.49555C11.5057 8.286 11.0495 8.27601 10.6638 8.46891L9.34509 9.12824C9.24998 9.09874 9.12637 9.05568 8.98494 8.99541C8.63579 8.84662 8.19445 8.59995 7.80262 8.20813C7.41073 7.81624 7.163 7.37378 7.01314 7.02323Z" fill="#989898"/>
</svg>
